<mxfile host="app.diagrams.net" modified="2024-02-25T13:05:28.656Z" agent="Mozilla/5.0 (Windows NT 10.0; Win64; x64) AppleWebKit/537.36 (KHTML, like Gecko) Chrome/122.0.0.0 Safari/537.36" version="23.1.5" etag="W25K42DpUqHLON4dzPGa" type="github">
  <diagram name="페이지-1" id="MP8bFn17M6S6qCjMyk0J">
    <mxGraphModel>
      <root>
        <mxCell id="0" />
        <mxCell id="1" parent="0" />
      </root>
    </mxGraphModel>
  </diagram>
</mxfile>
